# xmcd
#
# Track frame offsets: 
#        150
#        16443
#        32899
#        63209
#        75586
#        98199
#        113115
#        139891
#        153143
#        180142
#        199985
#
# Disc length: 2960 seconds
#
# Revision: 0
# Processed by: cddbd v1.5.2PL0 Copyright (c) Steve Scherf et al.
# Submitted via: ExactAudioCopy v0.99pb5
#
DISCID=840b8e0b
DTITLE=Black Jake and The Carnies - Sundry Mayhems
DYEAR=2011
DGENRE=Country
TTITLE0=Sundry Mayhems
TTITLE1=All the Difference
TTITLE2=Last Ecstatic Liniment
TTITLE3=Farmer Had Him Rats
TTITLE4=My Angel Marie
TTITLE5=Old E. Cross
TTITLE6=Cornbread Molly
TTITLE7=My Evil Friend
TTITLE8=Old Scratch Radio Variety Show
TTITLE9=Smoke and Mirrors
TTITLE10=Ypsitucky Rustbelt Revival
EXTD=
EXTT0=
EXTT1=
EXTT2=
EXTT3=
EXTT4=
EXTT5=
EXTT6=
EXTT7=
EXTT8=
EXTT9=
EXTT10=
PLAYORDER=
